<svg xmlns="http://www.w3.org/2000/svg">
    <symbol id="facebook-icon" width="8" height="16" viewBox="0 0 8 16" fill="none" xmlns="http://www.w3.org/2000/svg">
        <path d="M6.4893 2.69808H7.93865V0.173805C7.6886 0.139407 6.82865 0.0620117 5.82714 0.0620117C3.73747 0.0620117 2.30598 1.37641 2.30598 3.7922V6.0155H0V8.83745H2.30598V15.938H5.13323V8.83811H7.34594L7.6972 6.01616H5.13257V4.07202C5.13323 3.25639 5.35285 2.69808 6.4893 2.69808Z" fill="#333333"/>
    </symbol>
    <symbol id="twitter-icon" width="21" height="16" viewBox="0 0 21 16" fill="none" xmlns="http://www.w3.org/2000/svg">
        <path d="M20.494 1.93666C19.7668 2.25566 18.9919 2.46711 18.184 2.56978C19.0151 2.07355 19.6495 1.29378 19.9477 0.353886C19.1728 0.815886 18.3173 1.14222 17.4055 1.32433C16.6697 0.540886 15.621 0.0556641 14.477 0.0556641C12.2575 0.0556641 10.4706 1.85722 10.4706 4.06578C10.4706 4.38355 10.4975 4.68911 10.5635 4.98C7.23048 4.81744 4.28125 3.22 2.30003 0.786553C1.95414 1.38666 1.75125 2.07355 1.75125 2.813C1.75125 4.20144 2.46625 5.43222 3.53203 6.14478C2.88792 6.13255 2.25603 5.94555 1.7207 5.651C1.7207 5.66322 1.7207 5.67911 1.7207 5.695C1.7207 7.64322 3.11037 9.26144 4.9327 9.63422C4.60637 9.72344 4.2507 9.76622 3.88159 9.76622C3.62492 9.76622 3.36581 9.75155 3.12259 9.69777C3.64203 11.2854 5.11603 12.4527 6.8687 12.4906C5.5047 13.5576 3.77281 14.2004 1.89792 14.2004C1.56914 14.2004 1.25381 14.1858 0.938477 14.1454C2.71437 15.2907 4.81903 15.9446 7.0887 15.9446C14.466 15.9446 18.4994 9.83344 18.4994 4.53633C18.4994 4.35911 18.4933 4.188 18.4847 4.01811C19.2804 3.45344 19.9489 2.74822 20.494 1.93666Z" fill="#333333"/>
    </symbol>
    <symbol id="instagram-icon" width="17" height="16" viewBox="0 0 17 16" fill="none" xmlns="http://www.w3.org/2000/svg">
        <path fill-rule="evenodd" clip-rule="evenodd" d="M5.49414 0H11.4941C14.2551 0 16.4941 2.239 16.4941 5V11C16.4941 13.761 14.2551 16 11.4941 16H5.49414C2.73314 16 0.494141 13.761 0.494141 11V5C0.494141 2.239 2.73314 0 5.49414 0ZM11.4941 14.5C13.4241 14.5 14.9941 12.93 14.9941 11V5C14.9941 3.07 13.4241 1.5 11.4941 1.5H5.49414C3.56414 1.5 1.99414 3.07 1.99414 5V11C1.99414 12.93 3.56414 14.5 5.49414 14.5H11.4941Z" fill="#333333"/>
        <path fill-rule="evenodd" clip-rule="evenodd" d="M4.49414 8C4.49414 5.791 6.28514 4 8.49414 4C10.7031 4 12.4941 5.791 12.4941 8C12.4941 10.209 10.7031 12 8.49414 12C6.28514 12 4.49414 10.209 4.49414 8ZM5.99414 8C5.99414 9.378 7.11614 10.5 8.49414 10.5C9.87214 10.5 10.9941 9.378 10.9941 8C10.9941 6.621 9.87214 5.5 8.49414 5.5C7.11614 5.5 5.99414 6.621 5.99414 8Z" fill="#333333"/>
        <circle cx="12.7942" cy="3.69999" r="0.533" fill="#333333"/>
    </symbol>
    <symbol id="back-to-top-button" width="50" height="50" viewBox="0 0 50 50" fill="none" xmlns="http://www.w3.org/2000/svg">
        <rect width="50" height="50" rx="25" fill="#FFD2DD"/>
        <path d="M17.5 28L25 20.5L32.5 28" stroke="#5E4DCD" stroke-width="2" stroke-linecap="round" stroke-linejoin="round"/>
    </symbol>
    <symbol id="submit-button" width="24" height="24" viewBox="0 0 24 24" fill="none" xmlns="http://www.w3.org/2000/svg">
        <path d="M9 4.5L16.5 12L9 19.5" stroke="white" stroke-width="2" stroke-linecap="round" stroke-linejoin="round"/>
    </symbol>
</svg>